:SAMPLES-PER-SECOND 30
:FULLY-SPECIFIED
:DEGREES
126
root  -57.5868 41.3488 -3.977 178.741 -83.2147 174.65
RightUpLeg  -1.79191 -7.45552 -5.18525
RightLeg  5.76935 4.14581 2.78318
RightFoot  2.84789 -0.0181883 0.301752
RightToes  8.73114e-010 0 -3.6325e-017
Spine  -2.48102 -0.489248 2.46859
Spine1  9.19189 -0.562631 -0.548537
HEad  -0.0462665 5.67325 -4.80558
LeftShoulder1  4.39315 -7.29963 -34.5617
LeftArm  -7.31371 19.3919 -7.96228
LeftForeArm  29.6841 -29.6581 -4.79247
LeftHand  -0.244104 0.0205437 5.32207
RightShoulder  3.30537 5.89601 29.1759
RightArm  -11.4522 -18.193 16.3248
RightForeArm  5.53972 17.2173 4.60018
RightHand  -1.20117 3.48771 -15.8687
LeftUpLeg  3.97839 4.39724 -0.712685
LeftLeg  4.74142 9.64653 -3.9658
LeftFoot  -2.09912 -0.481361 6.10739
LeftToes  -7.64008e-011 1.13257e-010 -2.15718e-012
127
root  -58.0006 41.4039 -4.13775 177.035 -82.9277 176.555
RightUpLeg  -0.978928 -7.13677 -4.76292
RightLeg  5.1148 3.94826 2.82071
RightFoot  2.64969 0.0978978 -0.650871
RightToes  8.73114e-010 0 -3.6325e-017
Spine  -3.12853 -0.240079 2.81785
Spine1  8.97677 -0.316598 -0.497745
HEad  1.4055 5.72979 -4.47242
LeftShoulder1  3.72545 -6.4407 -31.3577
LeftArm  -6.33098 18.7788 -4.78464
LeftForeArm  25.4649 -23.8971 -3.87162
LeftHand  -0.244104 0.0205437 5.32207
RightShoulder  2.73639 5.07237 25.8156
RightArm  -12.8483 -15.4103 11.7634
RightForeArm  3.50343 15.8097 4.7158
RightHand  -1.23145 3.52064 -16.2001
LeftUpLeg  4.9368 4.43398 -0.299516
LeftLeg  3.95933 9.71286 -3.93956
LeftFoot  -2.62204 -0.401591 5.47122
LeftToes  -7.64008e-011 1.13257e-010 -2.15718e-012
128
root  -58.3493 41.442 -4.3009 175.032 -82.7181 178.792
RightUpLeg  -0.385528 -6.79623 -4.26183
RightLeg  4.61726 3.82738 2.78741
RightFoot  2.25113 0.132286 -0.977989
RightToes  8.73114e-010 0 -3.6325e-017
Spine  -3.49076 0.00564534 3.5479
Spine1  8.70117 0.0902449 -1.18801
HEad  2.20291 5.71204 -3.68443
LeftShoulder1  3.00053 -5.39201 -27.5661
LeftArm  -7.49786 17.6494 -2.31121
LeftForeArm  21.1125 -18.8188 -3.70424
LeftHand  -0.244104 0.0205437 5.32207
RightShoulder  2.22047 4.17517 22.6768
RightArm  -14.5782 -12.5067 7.84135
RightForeArm  0.889305 13.8026 4.84396
RightHand  -1.201 3.20077 -16.3747
LeftUpLeg  5.51574 4.54618 0.183171
LeftLeg  3.63762 9.61563 -3.82928
LeftFoot  -3.21673 -0.326416 4.86626
LeftToes  -7.64008e-011 1.13257e-010 -2.15718e-012
129
root  -58.6476 41.4534 -4.45376 173.256 -82.658 -179.228
RightUpLeg  0.0717611 -6.76229 -3.96899
RightLeg  4.34298 3.87657 3.00417
RightFoot  1.8763 0.11526 -0.892582
RightToes  8.73114e-010 0 -3.6325e-017
Spine  -3.49673 0.233085 4.38163
Spine1  8.17959 0.518751 -2.12771
HEad  2.71152 5.5231 -2.82396
LeftShoulder1  2.42674 -4.51123 -23.9772
LeftArm  -11.3436 16.7006 -0.131512
LeftForeArm  20.009 -15.4681 -3.55278
LeftHand  -0.244104 0.0205437 5.32207
RightShoulder  1.77073 3.30537 19.5629
RightArm  -16.6956 -10.0244 4.7456
RightForeArm  -2.44136 11.8227 4.84525
RightHand  -1.10319 2.52424 -16.3038
LeftUpLeg  5.73761 4.64067 0.5884
LeftLeg  3.89792 9.48807 -3.57584
LeftFoot  -3.96073 -0.262601 4.44161
LeftToes  -7.64008e-011 1.13257e-010 -2.15718e-012
130
root  -58.9154 41.4575 -4.60699 172.429 -82.7968 -178.259
RightUpLeg  0.438014 -6.86175 -3.81696
RightLeg  4.35082 3.77138 3.22294
RightFoot  1.49395 0.129335 -1.1491
RightToes  8.73114e-010 0 -3.6325e-017
Spine  -3.23794 0.41193 4.81519
Spine1  7.46166 0.812205 -2.6084
HEad  3.23969 5.15625 -2.25969
LeftShoulder1  1.9886 -3.76422 -20.8756
LeftArm  -14.1432 16.2204 1.80678
LeftForeArm  19.5411 -14.5717 -2.99499
LeftHand  -0.244104 0.0205437 5.32207
RightShoulder  1.34407 2.34764 16.259
RightArm  -18.8667 -8.01426 2.62964
RightForeArm  -5.47829 10.4588 4.66645
RightHand  -0.975353 1.78825 -15.878
LeftUpLeg  5.98349 4.60289 0.808308
LeftLeg  4.06894 9.36808 -3.31319
LeftFoot  -4.55645 -0.215924 4.10538
LeftToes  -7.64008e-011 1.13257e-010 -2.15718e-012
131
root  -59.1569 41.4641 -4.77137 172.193 -83.0501 -177.896
RightUpLeg  0.687571 -6.84322 -3.62312
RightLeg  4.54421 3.44755 3.2502
RightFoot  0.967908 0.153843 -1.52392
RightToes  8.73114e-010 0 -3.6325e-017
Spine  -2.8763 0.561063 4.87213
Spine1  6.72954 1.00891 -2.69559
HEad  3.73473 4.66287 -2.04495
LeftShoulder1  1.59389 -2.96007 -17.9528
LeftArm  -14.6256 15.859 3.23317
LeftForeArm  16.5435 -15.0182 -3.02846
LeftHand  -0.244104 0.0205437 5.32207
RightShoulder  0.948634 1.25337 12.9464
RightArm  -20.582 -6.30532 1.33134
RightForeArm  -7.57437 9.80421 4.48761
RightHand  -0.905851 1.42842 -15.5213
LeftUpLeg  6.28876 4.49728 0.962052
LeftLeg  4.02255 9.16689 -3.10995
LeftFoot  -4.95611 -0.173712 3.6488
LeftToes  -7.64008e-011 1.13257e-010 -2.15718e-012
132
root  -59.3693 41.469 -4.94282 171.724 -83.4028 -177.225
RightUpLeg  0.854352 -6.76969 -3.38973
RightLeg  4.64391 3.02704 3.26861
RightFoot  0.449953 0.159324 -1.58318
RightToes  8.73114e-010 0 -3.6325e-017
Spine  -2.6105 0.680708 4.88914
Spine1  6.1263 1.18417 -2.86849
HEad  3.92255 4.09805 -1.87856
LeftShoulder1  1.23027 -2.1198 -14.9238
LeftArm  -14.8874 15.158 4.1328
LeftForeArm  14.5188 -15.4441 -3.14063
LeftHand  -0.244104 0.0205437 5.32207
RightShoulder  0.66241 0.308102 10.1277
RightArm  -21.3162 -4.96271 0.28999
RightForeArm  -9.05565 9.59387 4.49916
RightHand  -0.922285 1.4984 -15.6392
LeftUpLeg  6.40976 4.44796 1.18166
LeftLeg  4.08317 8.76756 -2.91265
LeftFoot  -5.35062 -0.130471 3.10855
LeftToes  -7.64008e-011 1.13257e-010 -2.15718e-012
